<svg id="Layer_1" data-name="Layer 1" xmlns="http://www.w3.org/2000/svg" viewBox="0 0 804.33 555.89"><defs><style>.cls-1,.cls-2,.cls-3{fill:none;stroke-width:30px;}.cls-1{stroke:#007dbc;}.cls-1,.cls-2,.cls-3,.cls-6{stroke-miterlimit:10;}.cls-2{stroke:#00abc7;}.cls-3,.cls-6{stroke:#0071bc;}.cls-4,.cls-6{fill:#0071bc;}.cls-5{fill:#007dbc;}.cls-6{stroke-width:8px;}</style></defs><title>ReversePolarityLogo</title><line class="cls-1" x1="59.38" y1="180.5" x2="208.38" y2="180.5"/><line class="cls-1" x1="590.38" y1="180.5" x2="739.38" y2="180.5"/><line class="cls-2" x1="121.38" y1="79.5" x2="266.38" y2="79.5"/><line class="cls-2" x1="530.38" y1="79.5" x2="675.38" y2="79.5"/><line class="cls-2" x1="530.38" y1="281.5" x2="675.38" y2="281.5"/><line class="cls-2" x1="121.38" y1="281.5" x2="266.38" y2="281.5"/><polygon class="cls-3" points="494.93 15 303.83 15 208.28 180.5 303.83 346 494.93 346 590.48 180.5 494.93 15"/><path class="cls-3" d="M770,549" transform="translate(-100.62 -319.5)"/><path class="cls-3" d="M413,398" transform="translate(-100.62 -319.5)"/><path class="cls-3" d="M348,347" transform="translate(-100.62 -319.5)"/><path class="cls-3" d="M199,347" transform="translate(-100.62 -319.5)"/><path class="cls-3" d="M372,347" transform="translate(-100.62 -319.5)"/><path class="cls-3" d="M223,347" transform="translate(-100.62 -319.5)"/><text x="-100.62" y="-319.5"/><text x="-100.62" y="-319.5"/><path class="cls-4" d="M100.62,722.51h21.94c13.19,0,23.71,4.62,23.71,19.12,0,14-10.52,20.16-23.71,20.16h-9.14v23.45h-12.8ZM121.4,751.6c8,0,12.29-3.36,12.29-10s-4.31-8.92-12.29-8.92h-8V751.6Zm-1.21,6.8,9-8L149,785.24H134.68Z" transform="translate(-100.62 -319.5)"/><path class="cls-4" d="M158.57,722.51h38.61v10.76h-25.8v14.16h21.91v10.75H171.38v16.31h26.76v10.75H158.57Z" transform="translate(-100.62 -319.5)"/><path class="cls-4" d="M202.55,722.51h13.56l8.13,30.28c1.94,7,3.25,13.22,5.25,20.24h.38c2-7,3.38-13.27,5.26-20.24l8-30.28H256.2l-19.14,62.73H221.75Z" transform="translate(-100.62 -319.5)"/><path class="cls-4" d="M262.65,722.51h38.61v10.76h-25.8v14.16h21.91v10.75H275.46v16.31h26.76v10.75H262.65Z" transform="translate(-100.62 -319.5)"/><path class="cls-4" d="M314.83,722.51h21.94c13.19,0,23.71,4.62,23.71,19.12,0,14-10.52,20.16-23.71,20.16h-9.13v23.45H314.83Zm20.79,29.09c8,0,12.28-3.36,12.28-10s-4.31-8.92-12.28-8.92h-8V751.6Zm-1.21,6.8,9-8,19.83,34.82H348.9Z" transform="translate(-100.62 -319.5)"/><path class="cls-4" d="M367.28,777.27l7.39-8.78c4.48,4.06,10.37,6.82,15.83,6.82,6.44,0,9.78-2.72,9.78-7,0-4.5-3.79-5.94-9.37-8.26l-8.34-3.59c-6.35-2.61-12.67-7.75-12.67-16.89,0-10.21,9.08-18.24,21.77-18.24a28.33,28.33,0,0,1,19.8,8.12L405,737.57c-4.07-3.27-8.15-5.13-13.29-5.13-5.37,0-8.82,2.38-8.82,6.41,0,4.34,4.4,5.93,9.75,8.09l8.21,3.37c7.57,3.11,12.55,8,12.55,17,0,10.31-8.58,19.09-23.13,19.09A33.49,33.49,0,0,1,367.28,777.27Z" transform="translate(-100.62 -319.5)"/><path class="cls-4" d="M424.39,722.51H463v10.76H437.2v14.16h21.91v10.75H437.2v16.31H464v10.75H424.39Z" transform="translate(-100.62 -319.5)"/><path class="cls-4" d="M495.8,722.51h20.74c13.86,0,24.63,4.89,24.63,19.8,0,14.4-10.86,20.85-24.25,20.85H508.6v22.08H495.8ZM516.05,753c8.5,0,12.54-3.58,12.54-10.65s-4.51-9.6-12.92-9.6H508.6V753Z" transform="translate(-100.62 -319.5)"/><path class="cls-4" d="M549.38,753.62c0-20.41,11.46-32.26,28.12-32.26s28.12,11.92,28.12,32.26S594.16,786.4,577.5,786.4,549.38,774,549.38,753.62Zm43.1,0c0-13.26-5.84-21.18-15-21.18s-15,7.92-15,21.18,5.83,21.69,15,21.69S592.48,766.87,592.48,753.62Z" transform="translate(-100.62 -319.5)"/><path class="cls-4" d="M617.85,722.51h12.8v52H656v10.75H617.85Z" transform="translate(-100.62 -319.5)"/><path class="cls-4" d="M678.52,722.51h15.2l20,62.73H700.2l-8.81-32.49c-1.86-6.44-3.61-13.74-5.36-20.44h-.38c-1.62,6.77-3.37,14-5.22,20.44l-8.87,32.49H658.48Zm-7.46,36.88H701v10H671.06Z" transform="translate(-100.62 -319.5)"/><path class="cls-4" d="M720.29,722.51h21.94c13.19,0,23.71,4.62,23.71,19.12,0,14-10.52,20.16-23.71,20.16H733.1v23.45H720.29Zm20.79,29.09c8,0,12.28-3.36,12.28-10s-4.31-8.92-12.28-8.92h-8V751.6Zm-1.22,6.8,9-8,19.83,34.82H754.35Z" transform="translate(-100.62 -319.5)"/><path class="cls-4" d="M778.24,722.51h12.81v62.73H778.24Z" transform="translate(-100.62 -319.5)"/><path class="cls-4" d="M818.85,733.27H801.2V722.51h48.1v10.76H831.65v52h-12.8Z" transform="translate(-100.62 -319.5)"/><path class="cls-4" d="M873.26,762.44l-18.89-39.93h13.69l6.15,15.15c1.76,4.68,3.45,9,5.33,13.85h.38c1.87-4.82,3.75-9.17,5.51-13.85l6.16-15.15H905l-18.89,39.93v22.8h-12.8Z" transform="translate(-100.62 -319.5)"/><path class="cls-5" d="M157,835.37h6.2v16H180v-16h6.2v39.3H180V856.83H163.19v17.84H157Z" transform="translate(-100.62 -319.5)"/><path class="cls-5" d="M204.32,835.37h7.18l13,39.3h-6.57l-6.32-21.32c-1.32-4.25-2.51-8.66-3.71-13.07h-.24c-1.13,4.44-2.33,8.82-3.64,13.07l-6.39,21.32h-6.32Zm-5.66,23.24H217v4.9H198.66Z" transform="translate(-100.62 -319.5)"/><path class="cls-5" d="M229.37,835.37h12.88c8.1,0,14.19,2.88,14.19,11.42,0,8.22-6.09,12-14.19,12h-6.68v15.85h-6.2Zm12.16,18.47c5.67,0,8.77-2.33,8.77-7.05s-3.1-6.44-8.77-6.44h-6v13.49Zm-.47,3.31,4.61-3.54,12.16,21.06h-7Z" transform="translate(-100.62 -319.5)"/><path class="cls-5" d="M264.36,835.37h10.22c12.06,0,18.93,6.7,18.93,19.5s-6.87,19.8-18.62,19.8H264.36Zm9.8,34.26c8.41,0,13-5,13-14.76s-4.56-14.46-13-14.46h-3.6v29.22Z" transform="translate(-100.62 -319.5)"/><path class="cls-5" d="M297.37,835.37h6.38l3.69,20.46c.69,4.2,1.4,8.39,2.09,12.59h.24c.84-4.2,1.73-8.42,2.63-12.59l5.08-20.46h5.46L328,855.83c.9,4.1,1.8,8.36,2.69,12.59h.24c.69-4.23,1.35-8.46,2-12.59l3.69-20.46h6l-7.78,39.3h-7.61l-5.29-21.84c-.66-3.06-1.26-6-1.8-9h-.24c-.56,3-1.19,5.94-1.85,9l-5.17,21.84h-7.49Z" transform="translate(-100.62 -319.5)"/><path class="cls-5" d="M356.89,835.37h7.18l13,39.3H370.5l-6.32-21.32c-1.31-4.25-2.51-8.66-3.7-13.07h-.25c-1.13,4.44-2.33,8.82-3.64,13.07l-6.38,21.32h-6.33Zm-5.66,23.24h18.35v4.9H351.23Z" transform="translate(-100.62 -319.5)"/><path class="cls-5" d="M381.93,835.37h12.88c8.11,0,14.19,2.88,14.19,11.42,0,8.22-6.08,12-14.19,12h-6.68v15.85h-6.2Zm12.16,18.47c5.67,0,8.77-2.33,8.77-7.05s-3.1-6.44-8.77-6.44h-6v13.49Zm-.46,3.31,4.6-3.54,12.17,21.06h-7Z" transform="translate(-100.62 -319.5)"/><path class="cls-5" d="M416.92,835.37h23.26v5.23H423.12v10.94h14.43v5.23H423.12v12.67h17.66v5.23H416.92Z" transform="translate(-100.62 -319.5)"/><path class="cls-5" d="M482.17,869.6l3.64-4.25A15.38,15.38,0,0,0,496.29,870c4.71,0,7.38-2.22,7.38-5.58,0-3.54-2.66-4.67-6.28-6.23l-5.48-2.39c-3.79-1.59-8-4.54-8-10.3,0-6.16,5.41-10.83,12.87-10.83a16.83,16.83,0,0,1,11.91,5l-3.22,3.95a12.61,12.61,0,0,0-8.69-3.5c-4,0-6.61,1.93-6.61,5.05,0,3.36,3.16,4.61,6.35,5.93l5.42,2.31c4.62,1.95,8,4.81,8,10.56,0,6.31-5.22,11.48-13.83,11.48A19.65,19.65,0,0,1,482.17,869.6Z" transform="translate(-100.62 -319.5)"/><path class="cls-5" d="M515.18,854.87c0-12.67,7-20.22,17.12-20.22s17.12,7.58,17.12,20.22-7,20.52-17.12,20.52S515.18,867.54,515.18,854.87Zm27.86,0c0-9.2-4.23-14.81-10.74-14.81s-10.74,5.61-10.74,14.81S525.79,870,532.3,870,543,864.07,543,854.87Z" transform="translate(-100.62 -319.5)"/><path class="cls-5" d="M557.54,835.37h23.33v5.23H563.74v12h14.55v5.23H563.74v16.87h-6.2Z" transform="translate(-100.62 -319.5)"/><path class="cls-5" d="M595.82,840.6H584.26v-5.23h29.32v5.23H602v34.07h-6.2Z" transform="translate(-100.62 -319.5)"/><path class="cls-5" d="M616.36,835.37h6.38l3.69,20.46c.69,4.2,1.4,8.39,2.09,12.59h.24c.84-4.2,1.73-8.42,2.63-12.59l5.08-20.46h5.46L647,855.83c.9,4.1,1.8,8.36,2.69,12.59h.24c.69-4.23,1.35-8.46,2-12.59l3.69-20.46h6l-7.78,39.3h-7.61l-5.29-21.84c-.66-3.06-1.26-6-1.8-9h-.24c-.56,3-1.19,5.94-1.85,9l-5.17,21.84h-7.49Z" transform="translate(-100.62 -319.5)"/><path class="cls-5" d="M675.88,835.37h7.18l13,39.3H689.5l-6.33-21.32c-1.31-4.25-2.51-8.66-3.7-13.07h-.24c-1.14,4.44-2.33,8.82-3.65,13.07l-6.38,21.32h-6.32Zm-5.66,23.24h18.35v4.9H670.22Z" transform="translate(-100.62 -319.5)"/><path class="cls-5" d="M700.92,835.37H713.8c8.11,0,14.19,2.88,14.19,11.42,0,8.22-6.08,12-14.19,12h-6.68v15.85h-6.2Zm12.16,18.47c5.67,0,8.77-2.33,8.77-7.05s-3.1-6.44-8.77-6.44h-6v13.49Zm-.46,3.31,4.6-3.54,12.17,21.06h-7Z" transform="translate(-100.62 -319.5)"/><path class="cls-5" d="M735.91,835.37h23.26v5.23H742.11v10.94h14.43v5.23H742.11v12.67h17.66v5.23H735.91Z" transform="translate(-100.62 -319.5)"/><path class="cls-5" d="M811.75,835.37h7.19l13,39.3h-6.57l-6.32-21.32c-1.31-4.25-2.51-8.66-3.71-13.07h-.24c-1.13,4.44-2.33,8.82-3.64,13.07l-6.38,21.32h-6.33Zm-5.65,23.24h18.35v4.9H806.1Z" transform="translate(-100.62 -319.5)"/><path class="cls-5" d="M836.8,835.37H843v39.3h-6.2Z" transform="translate(-100.62 -319.5)"/><circle class="cls-5" cx="362.39" cy="536.5" r="8"/><circle class="cls-5" cx="680.39" cy="536.5" r="8"/><text x="-100.62" y="-319.5"/><path class="cls-6" d="M409.94,450h37.8c24.59,0,42.24,8.37,42.24,32.24,0,22.88-17.65,33.9-42.24,33.9H425.3v48.42H409.94Zm35.6,54.31c18.78,0,29.12-7.22,29.12-22.07,0-15.07-10.34-20.42-29.12-20.42H425.3v42.49Zm-.83,7.83,12-7.54,36.83,60H476.17Z" transform="translate(-100.62 -319.5)"/><path class="cls-6" d="M523.77,450h34.47c27,0,45.29,8.63,45.29,33.73,0,24.11-18.15,35.39-44.56,35.39H539.13v45.44H523.77ZM557,507.32c21.1,0,31.17-7.26,31.17-23.56,0-16.52-10.7-21.91-31.91-21.91H539.13v45.47Z" transform="translate(-100.62 -319.5)"/></svg>